<svg xmlns="http://www.w3.org/2000/svg" viewBox="0 0 384 512">
  <path d="M318.7 268.7c-.2-36.7 16.4-64.4 50-84.8-18.8-26.9-47.2-41.7-84.7-44.6-35.5-2.8-74.3 20.7-88.5 20.7-15 0-49.4-19.7-76.4-19.7C63.3 141.2 4 184.8 4 273.5q0 39.3 14.4 81.2c12.8 36.7 59 126.7 107.2 125.2 25.2-.6 43-17.9 75.8-17.9 31.8 0 48.3 17.9 76.4 17.4 49-.9 87.5-81.2 99.4-118-40.4-11.8-58.4-53.7-58.5-92.7zm-86.2-225.2c20.7-25.2 36-59.5 32-94.4-28.8 2.3-64.4 20.2-85.3 46.1-17.9 22-34.5 56.6-29.3 90.6 32.3 2.5 65.5-17.4 82.6-42.3z"/>
</svg>
