<svg width="26" height="26" viewBox="0 0 26 26" fill="none" xmlns="http://www.w3.org/2000/svg">
<path fill-rule="evenodd" clip-rule="evenodd" d="M8.30925 2.16656H17.7017C21.3742 2.16656 23.8334 4.7449 23.8334 8.5799V17.4318C23.8334 21.2549 21.3742 23.8332 17.7017 23.8332H8.30925C4.63675 23.8332 2.16675 21.2549 2.16675 17.4318V8.5799C2.16675 4.7449 4.63675 2.16656 8.30925 2.16656ZM12.3826 16.2391L17.5284 11.0932C17.8967 10.7249 17.8967 10.1291 17.5284 9.7499C17.1601 9.38156 16.5534 9.38156 16.1851 9.7499L11.7109 14.2241L9.81508 12.3282C9.44675 11.9599 8.84008 11.9599 8.47175 12.3282C8.10341 12.6966 8.10341 13.2924 8.47175 13.6716L11.0501 16.2391C11.2342 16.4232 11.4726 16.5099 11.7109 16.5099C11.9601 16.5099 12.1984 16.4232 12.3826 16.2391Z" fill="#4D5DFA"/>
</svg>
