<svg width="18" height="18" viewBox="0 0 18 18" fill="none" xmlns="http://www.w3.org/2000/svg">
<path d="M16.875 7.875H16.1156L14.1623 3.48047C14.0739 3.28164 13.9298 3.11272 13.7473 2.99416C13.5649 2.87561 13.352 2.8125 13.1344 2.8125H4.86562C4.64804 2.8125 4.43512 2.87561 4.25266 2.99416C4.07021 3.11272 3.92605 3.28164 3.83766 3.48047L1.88437 7.875H1.125C0.975816 7.875 0.832742 7.93426 0.727252 8.03975C0.621763 8.14524 0.5625 8.28832 0.5625 8.4375C0.5625 8.58668 0.621763 8.72976 0.727252 8.83525C0.832742 8.94074 0.975816 9 1.125 9H1.6875V14.625C1.6875 14.9234 1.80603 15.2095 2.017 15.4205C2.22798 15.6315 2.51413 15.75 2.8125 15.75H4.5C4.79837 15.75 5.08452 15.6315 5.29549 15.4205C5.50647 15.2095 5.625 14.9234 5.625 14.625V13.5H12.375V14.625C12.375 14.9234 12.4935 15.2095 12.7045 15.4205C12.9155 15.6315 13.2016 15.75 13.5 15.75H15.1875C15.4859 15.75 15.772 15.6315 15.983 15.4205C16.194 15.2095 16.3125 14.9234 16.3125 14.625V9H16.875C17.0242 9 17.1673 8.94074 17.2727 8.83525C17.3782 8.72976 17.4375 8.58668 17.4375 8.4375C17.4375 8.28832 17.3782 8.14524 17.2727 8.03975C17.1673 7.93426 17.0242 7.875 16.875 7.875ZM5.625 11.25H4.5C4.35082 11.25 4.20774 11.1907 4.10225 11.0852C3.99676 10.9798 3.9375 10.8367 3.9375 10.6875C3.9375 10.5383 3.99676 10.3952 4.10225 10.2898C4.20774 10.1843 4.35082 10.125 4.5 10.125H5.625C5.77418 10.125 5.91726 10.1843 6.02275 10.2898C6.12824 10.3952 6.1875 10.5383 6.1875 10.6875C6.1875 10.8367 6.12824 10.9798 6.02275 11.0852C5.91726 11.1907 5.77418 11.25 5.625 11.25ZM12.375 11.25C12.2258 11.25 12.0827 11.1907 11.9773 11.0852C11.8718 10.9798 11.8125 10.8367 11.8125 10.6875C11.8125 10.5383 11.8718 10.3952 11.9773 10.2898C12.0827 10.1843 12.2258 10.125 12.375 10.125H13.5C13.6492 10.125 13.7923 10.1843 13.8977 10.2898C14.0032 10.3952 14.0625 10.5383 14.0625 10.6875C14.0625 10.8367 14.0032 10.9798 13.8977 11.0852C13.7923 11.1907 13.6492 11.25 13.5 11.25H12.375Z" fill="#4D5DFA"/>
</svg>
