<svg width="18" height="18" viewBox="0 0 18 18" fill="none" xmlns="http://www.w3.org/2000/svg">
<path d="M8.99989 3C10.5511 3 12.0221 3.53782 13.3026 4.53418C14.5831 5.52327 15.673 6.97132 16.4559 8.78223C16.5143 8.92033 16.5144 9.08013 16.4559 9.21094C14.8901 12.8327 12.1023 15 8.99989 15H8.99305C5.89794 15 3.10969 12.8327 1.54383 9.21094C1.48534 9.08013 1.48544 8.92033 1.54383 8.78223C3.10969 5.16041 5.89793 3 8.99305 3H8.99989ZM8.99989 6.09082C7.38281 6.09082 6.07313 7.39273 6.07313 9C6.07313 10.6 7.38281 11.9014 8.99989 11.9014C10.6096 11.9014 11.9198 10.6 11.9198 9C11.9198 7.39273 10.6096 6.09082 8.99989 6.09082ZM9.00086 7.18066C10.0031 7.18072 10.8229 7.99461 10.8231 8.99805C10.8231 9.99438 10.0033 10.8095 9.00086 10.8096C7.99111 10.8096 7.17176 9.99441 7.17176 8.99805C7.17179 8.87454 7.18596 8.75785 7.20789 8.6416H7.245C8.05701 8.64142 8.71569 8.00199 8.745 7.20215C8.82541 7.18764 8.91317 7.18066 9.00086 7.18066Z" fill="white"/>
</svg>
