<svg width="28" height="28" viewBox="0 0 28 28" fill="none" xmlns="http://www.w3.org/2000/svg">
<path fill-rule="evenodd" clip-rule="evenodd" d="M19.4428 2.34555C21.121 2.24066 22.776 2.82339 24.0231 3.96554C25.1652 5.21259 25.748 6.86754 25.6547 8.55746V19.4429C25.7596 21.1328 25.1652 22.7877 24.0347 24.0348C22.7877 25.1769 21.121 25.7597 19.4428 25.6548H8.55727C6.86733 25.7597 5.21237 25.1769 3.96531 24.0348C2.82315 22.7877 2.24042 21.1328 2.34531 19.4429V8.55746C2.24042 6.86754 2.82315 5.21259 3.96531 3.96554C5.21237 2.82339 6.86733 2.24066 8.55727 2.34555H19.4428ZM12.8112 19.6526L20.6549 11.7858C21.3658 11.0632 21.3658 9.89774 20.6549 9.18681L19.1397 7.67171C18.4171 6.94912 17.2517 6.94912 16.5291 7.67171L15.7482 8.46422C15.6317 8.58077 15.6317 8.7789 15.7482 8.89544C15.7482 8.89544 17.6013 10.7369 17.6363 10.7835C17.7645 10.9233 17.8461 11.1098 17.8461 11.3196C17.8461 11.7392 17.5081 12.0888 17.0769 12.0888C16.8787 12.0888 16.6922 12.0072 16.564 11.879L14.6177 9.94436C14.5245 9.85112 14.3613 9.85112 14.2681 9.94436L8.70878 15.5036C8.32417 15.8882 8.10273 16.401 8.09108 16.9488L8.02115 19.7109C8.02115 19.8624 8.06777 20.0023 8.17266 20.1072C8.27755 20.2121 8.41741 20.2703 8.56892 20.2703H11.3078C11.8672 20.2703 12.4033 20.0489 12.8112 19.6526Z" fill="#4D5DFA"/>
</svg>
