<svg width="18" height="18" viewBox="0 0 18 18" fill="none" xmlns="http://www.w3.org/2000/svg">
<path fill-rule="evenodd" clip-rule="evenodd" d="M12.7045 2.25C13.7102 2.25 14.6777 2.6475 15.3895 3.36075C16.102 4.0725 16.5002 5.0325 16.5002 6.0375V11.9625C16.5002 14.055 14.7977 15.75 12.7045 15.75H5.29524C3.20199 15.75 1.50024 14.055 1.50024 11.9625V6.0375C1.50024 3.945 3.19449 2.25 5.29524 2.25H12.7045ZM13.8977 7.155L13.9577 7.095C14.137 6.8775 14.137 6.5625 13.9495 6.345C13.8452 6.23325 13.702 6.165 13.5527 6.15C13.3952 6.14175 13.2452 6.195 13.132 6.3L9.75024 9C9.31524 9.36075 8.69199 9.36075 8.25024 9L4.87524 6.3C4.64199 6.1275 4.31949 6.15 4.12524 6.3525C3.92274 6.555 3.90024 6.8775 4.07199 7.1025L4.17024 7.2L7.58274 9.8625C8.00274 10.1925 8.51199 10.3725 9.04524 10.3725C9.57699 10.3725 10.0952 10.1925 10.5145 9.8625L13.8977 7.155Z" fill="#908F96"/>
</svg>
