<svg width="18" height="18" viewBox="0 0 18 18" fill="none" xmlns="http://www.w3.org/2000/svg">
<path fill-rule="evenodd" clip-rule="evenodd" d="M14.3779 2.78596C14.5974 2.57183 14.941 2.57183 15.1532 2.78596C15.3727 3.00011 15.3727 3.3541 15.1532 3.56819L13.8212 4.91194C14.8823 5.88657 15.7827 7.20102 16.456 8.78108C16.5145 8.92128 16.5144 9.08377 16.456 9.21663C14.8899 12.8937 12.1018 15.0945 8.99895 15.0946H8.99113C7.57891 15.0945 6.22487 14.6292 5.03215 13.7801L3.6132 15.2127C3.50343 15.3235 3.36358 15.3748 3.22453 15.3748C3.08562 15.3747 2.93918 15.3234 2.83684 15.2127C2.65394 15.0281 2.62506 14.7325 2.77141 14.5184L2.79289 14.4891L13.6161 3.56819C13.6307 3.55348 13.6459 3.53896 13.6532 3.52425C13.6679 3.50948 13.6821 3.49409 13.6894 3.47932L14.3779 2.78596ZM9.0009 2.91389C10.0472 2.9139 11.0643 3.16508 12.0009 3.63753L9.55656 6.10432C9.38105 6.07482 9.19102 6.05257 9.0009 6.05257C7.38361 6.05257 6.07317 7.37387 6.07317 9.00569C6.07317 9.19767 6.09565 9.39001 6.12492 9.56721L3.41692 12.2987C2.6852 11.4422 2.04876 10.4082 1.54387 9.21956C1.4854 9.08668 1.48535 8.92424 1.54387 8.78401C3.10986 5.10715 5.89779 2.91411 8.99309 2.91389H9.0009ZM10.6161 8.14632C10.7478 8.39735 10.8212 8.69266 10.8212 9.00276C10.8212 10.0143 10.0015 10.8416 8.99895 10.8416C8.69169 10.8416 8.39908 10.7674 8.15031 10.6346L7.35246 11.4393C7.82082 11.7568 8.39155 11.949 8.99895 11.949C10.6089 11.949 11.9189 10.6272 11.9189 9.00276C11.9189 8.39 11.7286 7.81415 11.414 7.34163L10.6161 8.14632Z" fill="#908F96"/>
</svg>
