<svg width="18" height="18" viewBox="0 0 18 18" fill="none" xmlns="http://www.w3.org/2000/svg">
<path d="M8.98828 1.5C11.2898 1.5 13.1415 3.31102 13.1416 5.54688V6.69727C14.4333 7.10045 15.3749 8.26944 15.375 9.66602V13.3691C15.3749 15.0982 13.9411 16.5 12.1738 16.5H5.82617C4.05834 16.4998 2.62509 15.098 2.625 13.3691V9.66602C2.62513 8.26944 3.56748 7.10045 4.8584 6.69727V5.54688C4.86609 3.31112 6.71739 1.50015 8.98828 1.5ZM8.99609 10.0381C8.63036 10.0381 8.33306 10.3289 8.33301 10.6865V12.3408C8.33301 12.706 8.63033 12.997 8.99609 12.9971C9.36952 12.9971 9.66699 12.706 9.66699 12.3408V10.6865C9.66694 10.3288 9.36949 10.0381 8.99609 10.0381ZM9.00391 2.80469C7.45683 2.80469 6.19903 4.02671 6.19141 5.53223V6.53516H11.8086V5.54688C11.8085 4.034 10.5509 2.80474 9.00391 2.80469Z" fill="#908F96"/>
</svg>
