<svg width="16" height="16" viewBox="0 0 16 16" fill="none" xmlns="http://www.w3.org/2000/svg">
<path d="M15.4142 6.58578C16.1953 7.36683 16.1953 8.63316 15.4142 9.41421C14.6332 10.1953 13.3668 10.1953 12.5858 9.41421C11.8047 8.63316 11.8047 7.36683 12.5858 6.58578C13.3668 5.80474 14.6332 5.80474 15.4142 6.58578Z" fill="#757897"/>
<path d="M9.41421 6.58578C10.1953 7.36683 10.1953 8.63316 9.41421 9.41421C8.63316 10.1953 7.36683 10.1953 6.58578 9.41421C5.80474 8.63316 5.80474 7.36683 6.58578 6.58578C7.36683 5.80474 8.63316 5.80474 9.41421 6.58578Z" fill="#757897"/>
<path d="M3.41421 6.58578C4.19525 7.36683 4.19525 8.63316 3.41421 9.41421C2.63316 10.1953 1.36683 10.1953 0.585784 9.41421C-0.195261 8.63316 -0.195261 7.36683 0.585784 6.58578C1.36683 5.80474 2.63316 5.80474 3.41421 6.58578Z" fill="#757897"/>
</svg>
