<svg width="16" height="16" viewBox="0 0 16 16" fill="none" xmlns="http://www.w3.org/2000/svg">
<path d="M7.125 0C11.0602 0 14.251 3.22375 14.251 7.2002C14.2509 8.89985 13.6663 10.4607 12.6914 11.6924L15.6025 14.6348C15.9114 14.9472 15.9115 15.4533 15.6025 15.7656C15.3171 16.054 14.8682 16.076 14.5576 15.832L14.4824 15.7656L11.5713 12.8232C10.3521 13.8088 8.80754 14.4004 7.125 14.4004C3.19 14.4002 0.000104557 11.1764 0 7.2002C0 3.22388 3.18993 0.000211907 7.125 0ZM7.125 1.59961C4.06444 1.59982 1.58301 4.10753 1.58301 7.2002C1.58313 10.2928 4.06451 12.7996 7.125 12.7998C8.62292 12.7998 9.9811 12.1984 10.9785 11.2227C10.9971 11.199 11.0174 11.1762 11.0391 11.1543C11.0542 11.139 11.0719 11.1271 11.0879 11.1133C12.0644 10.1038 12.6669 8.72336 12.667 7.2002C12.667 4.1074 10.1857 1.59961 7.125 1.59961Z" fill="#757897"/>
</svg>
