<svg width="142" height="188" viewBox="0 0 142 188" fill="none" xmlns="http://www.w3.org/2000/svg">
<g id="icon 1" clip-path="url(#clip0_2_2)">
<path id="Vector" d="M0.473389 154.63C0.473389 148.401 5.55943 143.35 11.8334 143.35H36.4467C42.7207 143.35 47.8067 148.401 47.8067 154.63V176.25C47.8067 182.479 42.7207 187.53 36.4467 187.53H11.8334C5.55943 187.53 0.473389 182.479 0.473389 176.25V154.63Z" fill="white"/>
<path id="Vector_2" d="M94.1934 87.89H73.3667C84.2232 87.8743 93.1342 79.6225 94.1046 69.09H94.1934V87.89Z" fill="white"/>
<path id="Vector_3" d="M69.5801 42.77C58.7236 42.7857 49.8125 51.0376 48.8422 61.57H48.7534V42.77H69.5801Z" fill="white"/>
<path id="Vector_4" fill-rule="evenodd" clip-rule="evenodd" d="M68.16 0H130.64C136.914 0 142 5.05023 142 11.28V64.86C142 102.239 111.483 132.54 73.84 132.54H68.6333C64.5814 132.54 61.2967 129.278 61.2967 125.255V94.235C61.2967 90.7308 64.1576 87.89 67.6867 87.89H83.78C89.5311 87.89 94.1933 83.2606 94.1933 77.55V53.11C94.1933 47.3994 89.5311 42.77 83.78 42.77H58.6933C53.2036 42.77 48.7533 47.1889 48.7533 52.64V122.2C48.7533 127.91 44.0911 132.54 38.34 132.54H29.3467H30.0567H11.36C5.08604 132.54 0 127.489 0 121.26V67.68C0 30.3014 30.5163 0 68.16 0Z" fill="white"/>
</g>
<defs>
<clipPath id="clip0_2_2">
<rect width="142" height="188" fill="white"/>
</clipPath>
</defs>
</svg>
