<svg width="36" height="36" viewBox="0 0 36 36" fill="none" xmlns="http://www.w3.org/2000/svg">
<rect width="36" height="36" rx="10" fill="#4D5DFA"/>
<g clip-path="url(#clip0_177_1444)">
<path d="M10.0566 25.9176C10.0566 25.1555 10.6655 24.5376 11.4166 24.5376H14.3633C15.1144 24.5376 15.7233 25.1555 15.7233 25.9176V28.5626C15.7233 29.3247 15.1144 29.9426 14.3633 29.9426H11.4166C10.6655 29.9426 10.0566 29.3247 10.0566 28.5626V25.9176Z" fill="white"/>
<path d="M21.2768 17.7524H18.7834C20.0832 17.7505 21.15 16.7409 21.2661 15.4524H21.2768V17.7524Z" fill="white"/>
<path d="M18.33 12.2324C17.0303 12.2343 15.9635 13.2439 15.8473 14.5324H15.8367V12.2324H18.33Z" fill="white"/>
<path fill-rule="evenodd" clip-rule="evenodd" d="M18.16 7H25.64C26.3911 7 27 7.61785 27 8.38V14.935C27 19.508 23.3466 23.215 18.84 23.215H18.2167C17.7316 23.215 17.3383 22.816 17.3383 22.3238V18.5287C17.3383 18.1 17.6808 17.7525 18.1033 17.7525H20.03C20.7185 17.7525 21.2767 17.1861 21.2767 16.4875V13.4975C21.2767 12.7989 20.7185 12.2325 20.03 12.2325H17.0267C16.3694 12.2325 15.8367 12.7731 15.8367 13.44V21.95C15.8367 22.6486 15.2785 23.215 14.59 23.215H13.5133H13.5983H11.36C10.6089 23.215 10 22.5971 10 21.835V15.28C10 10.7071 13.6534 7 18.16 7Z" fill="white"/>
</g>
<defs>
<clipPath id="clip0_177_1444">
<rect width="17" height="23" fill="white" transform="translate(10 7)"/>
</clipPath>
</defs>
</svg>
